<svg width="463" height="319" viewBox="0 0 463 319" fill="none" xmlns="http://www.w3.org/2000/svg">
<path d="M145.75 33.82C147.909 33.82 149.66 32.0694 149.66 29.91C149.66 27.7506 147.909 26 145.75 26C143.59 26 141.84 27.7506 141.84 29.91C141.84 32.0694 143.59 33.82 145.75 33.82Z" fill="#9A9A9A" fill-opacity="0.4"/>
<path d="M307.64 44.2499C307.64 45.3899 306.72 46.3099 305.58 46.3099C304.44 46.3099 303.52 45.3899 303.52 44.2499C303.52 43.1099 304.44 42.1899 305.58 42.1899C306.72 42.1899 307.64 43.1099 307.64 44.2499Z" fill="#9A9A9A" fill-opacity="0.4"/>
<path d="M396.86 55.4398C396.86 57.5998 395.11 59.3498 392.95 59.3498C390.79 59.3498 389.04 57.5998 389.04 55.4398C389.04 53.2798 390.79 51.5298 392.95 51.5298C395.11 51.5298 396.86 53.2798 396.86 55.4398Z" fill="#9A9A9A" fill-opacity="0.4"/>
<path d="M5.12 173.2C5.12 174.34 4.2 175.26 3.06 175.26C1.92 175.26 1 174.34 1 173.2C1 172.06 1.92 171.14 3.06 171.14C4.2 171.14 5.12 172.06 5.12 173.2Z" fill="#9A9A9A" fill-opacity="0.4"/>
<path d="M443.02 244.38C443.02 246.54 441.27 248.29 439.11 248.29C436.95 248.29 435.2 246.54 435.2 244.38C435.2 242.22 436.95 240.47 439.11 240.47C441.27 240.47 443.02 242.22 443.02 244.38Z" fill="#9A9A9A" fill-opacity="0.4"/>
<path d="M6.95004 101.75C9.10947 101.75 10.86 99.9996 10.86 97.8402C10.86 95.6807 9.10947 93.9302 6.95004 93.9302C4.79061 93.9302 3.04004 95.6807 3.04004 97.8402C3.04004 99.9996 4.79061 101.75 6.95004 101.75Z" fill="#9A9A9A" fill-opacity="0.4"/>
<path d="M134.47 90.1599H128.22V83.8999H123.78V90.1599H117.53V94.5899H123.78V100.84H128.22V94.5899H134.47V90.1599Z" fill="#9A9A9A" fill-opacity="0.4"/>
<path d="M39.8901 36.2998H35.3501V31.7598H32.1401V36.2998H27.6001V39.5198H32.1401V44.0498H35.3501V39.5198H39.8901V36.2998Z" fill="#9A9A9A" fill-opacity="0.4"/>
<path d="M123.67 10.53H119.14V6H115.92V10.53H111.39V13.75H115.92V18.28H119.14V13.75H123.67V10.53Z" fill="#9A9A9A" fill-opacity="0.4"/>
<path d="M403.04 93.78H398.5V89.25H395.29V93.78H390.75V97H395.29V101.53H398.5V97H403.04V93.78Z" fill="#9A9A9A" fill-opacity="0.4"/>
<path d="M418.94 62.9099H412.69V56.6499H408.25V62.9099H402V67.3399H408.25V73.5899H412.69V67.3399H418.94V62.9099Z" fill="#9A9A9A" fill-opacity="0.4"/>
<path d="M23.94 105H17.69V98.75H13.25V105H7V109.44H13.25V115.69H17.69V109.44H23.94V105Z" fill="#9A9A9A" fill-opacity="0.4"/>
<path d="M432.49 231.25H427.95V226.72H424.73V231.25H420.2V234.47H424.73V239H427.95V234.47H432.49V231.25Z" fill="#9A9A9A" fill-opacity="0.4"/>
<path d="M231.48 318.05C359.323 318.05 462.96 304.238 462.96 287.2C462.96 270.162 359.323 256.35 231.48 256.35C103.637 256.35 0 270.162 0 287.2C0 304.238 103.637 318.05 231.48 318.05Z" fill="#EDF0FC"/>
<path d="M422.31 196.27C422.31 196.27 379.67 214.81 367.42 231.01C355.18 247.2 365.23 266.41 365.23 266.41C365.23 266.41 386.08 272.35 399.45 257.07C412.82 241.79 422.3 196.27 422.3 196.27H422.31Z" fill="#C1FF72"/>
<mask id="mask0_160_564" style="mask-type:luminance" maskUnits="userSpaceOnUse" x="361" y="196" width="62" height="72">
<path d="M422.31 196.27C422.31 196.27 379.67 214.81 367.42 231.01C355.18 247.2 365.23 266.41 365.23 266.41C365.23 266.41 386.08 272.35 399.45 257.07C412.82 241.79 422.3 196.27 422.3 196.27H422.31Z" fill="white"/>
</mask>
<g mask="url(#mask0_160_564)">
<path d="M433.87 222.84C435.63 222.57 437.38 222.3 439.14 222.03C440.04 221.89 439.9 220.47 438.99 220.61C426.59 222.52 414.2 224.44 401.8 226.35C400.64 226.53 399.48 226.71 398.32 226.89C399.29 225.7 400.25 224.52 401.22 223.33C404.6 219.18 407.98 215.02 411.36 210.87C423.65 208.97 435.95 207.08 448.24 205.18C450 204.91 451.75 204.64 453.51 204.37C454.41 204.23 454.27 202.81 453.36 202.95L416.17 208.69C415.01 208.87 413.85 209.05 412.69 209.23C414.56 206.93 416.43 204.63 418.3 202.33C420.19 200.01 422.07 197.7 423.96 195.38C424.82 194.32 425.9 193.27 426.63 192.1C426.66 192.05 426.71 192 426.75 191.95C427.33 191.24 426.23 190.34 425.65 191.05C423.39 193.83 421.12 196.62 418.86 199.4C416.44 202.38 414.02 205.35 411.6 208.33C410.98 196.41 410.37 184.49 409.75 172.56C409.66 170.78 409.57 169.01 409.47 167.23C409.42 166.31 408.01 166.46 408.05 167.38C408.7 179.91 409.35 192.43 409.99 204.96C410.08 206.63 410.16 208.3 410.25 209.98C407.68 213.14 405.1 216.31 402.53 219.47C400.76 221.65 398.99 223.82 397.22 226L395.37 190.23C395.28 188.45 395.19 186.68 395.09 184.9C395.04 183.98 393.63 184.13 393.67 185.05C394.32 197.58 394.97 210.1 395.61 222.63C395.7 224.3 395.78 225.97 395.87 227.65C391.53 232.99 387.18 238.33 382.84 243.67C382.22 231.75 381.61 219.83 380.99 207.9C380.9 206.12 380.81 204.35 380.71 202.57C380.66 201.65 379.25 201.8 379.29 202.72C379.94 215.25 380.59 227.77 381.23 240.3C381.32 241.97 381.4 243.64 381.49 245.32C377.15 250.66 372.8 256 368.46 261.34C367.84 249.42 367.23 237.5 366.61 225.57C366.52 223.79 366.43 222.02 366.33 220.24C366.28 219.32 364.87 219.47 364.91 220.39C365.56 232.92 366.21 245.44 366.85 257.97C366.94 259.64 367.02 261.31 367.11 262.99C366.6 263.62 366.08 264.25 365.57 264.88C363.68 267.2 361.8 269.51 359.91 271.83C359.04 272.89 357.97 273.94 357.24 275.11C357.21 275.16 357.16 275.21 357.12 275.26C356.54 275.97 357.64 276.87 358.22 276.16C360.48 273.38 362.75 270.59 365.01 267.81C366.07 266.5 367.14 265.19 368.2 263.89C380.49 261.99 392.79 260.1 405.08 258.2C406.84 257.93 408.59 257.66 410.35 257.39C411.25 257.25 411.11 255.83 410.2 255.97C397.8 257.88 385.41 259.8 373.01 261.71C371.85 261.89 370.69 262.07 369.53 262.25C373.46 257.42 377.39 252.59 381.32 247.76C381.73 247.25 382.15 246.74 382.56 246.23C394.85 244.33 407.15 242.44 419.44 240.54C421.2 240.27 422.95 240 424.71 239.73C425.61 239.59 425.47 238.17 424.56 238.31C412.16 240.22 399.77 242.14 387.37 244.05C386.21 244.23 385.05 244.41 383.89 244.59C388.23 239.25 392.58 233.91 396.92 228.57C409.21 226.67 421.51 224.78 433.8 222.88L433.87 222.84Z" fill="#00A558"/>
</g>
<path opacity="0.1" d="M414.37 225.81C412.93 227.85 411.42 229.87 409.79 231.87C395.67 249.22 378.06 260.11 363.46 262.01C364.37 264.76 365.24 266.42 365.24 266.42C365.24 266.42 386.09 272.36 399.46 257.08C405.34 250.36 410.47 237.79 414.37 225.81Z" fill="#093731"/>
<path d="M457.11 237.38C457.11 237.38 412.75 237.73 394.13 245.8C375.51 253.86 373.19 271.06 373.19 271.06C373.19 271.06 386.75 281.88 405.78 274.83C424.81 267.78 457.11 237.38 457.11 237.38Z" fill="#00A558"/>
<mask id="mask1_160_564" style="mask-type:luminance" maskUnits="userSpaceOnUse" x="373" y="237" width="85" height="41">
<path d="M457.11 237.38C457.11 237.38 412.75 237.73 394.13 245.8C375.51 253.86 373.19 271.06 373.19 271.06C373.19 271.06 386.75 281.88 405.78 274.83C424.81 267.78 457.11 237.38 457.11 237.38Z" fill="white"/>
</mask>
<g mask="url(#mask1_160_564)">
<path d="M452.01 260.42C453.57 260.77 455.13 261.11 456.69 261.46C457.49 261.64 458.15 260.56 457.34 260.38C446.33 257.94 435.32 255.49 424.31 253.05C423.28 252.82 422.25 252.59 421.22 252.36C422.64 251.79 424.06 251.22 425.48 250.65C430.45 248.66 435.42 246.66 440.39 244.67C451.31 247.09 462.23 249.52 473.14 251.94C474.7 252.29 476.26 252.63 477.82 252.98C478.62 253.16 479.28 252.08 478.47 251.9C467.46 249.46 456.45 247.01 445.44 244.57C444.41 244.34 443.38 244.11 442.35 243.88C445.1 242.78 447.85 241.67 450.6 240.57C453.37 239.46 456.15 238.34 458.92 237.23C460.19 236.72 461.62 236.28 462.84 235.66C462.9 235.63 462.96 235.61 463.02 235.59C463.87 235.25 463.47 234.25 462.62 234.59C459.29 235.93 455.96 237.26 452.63 238.6C449.07 240.03 445.51 241.46 441.95 242.88C447.91 233.96 453.88 225.03 459.84 216.11C460.73 214.78 461.62 213.45 462.51 212.12C462.97 211.43 461.75 211.1 461.29 211.79C455.02 221.17 448.76 230.54 442.49 239.92C441.65 241.17 440.82 242.42 439.98 243.68C436.2 245.2 432.41 246.72 428.63 248.23C426.03 249.28 423.42 250.32 420.82 251.36C426.78 242.44 432.75 233.51 438.71 224.59C439.6 223.26 440.49 221.93 441.38 220.6C441.84 219.91 440.62 219.58 440.16 220.27C433.89 229.65 427.63 239.02 421.36 248.4C420.52 249.65 419.69 250.9 418.85 252.16C412.46 254.72 406.07 257.29 399.69 259.85C405.65 250.93 411.62 242 417.58 233.08C418.47 231.75 419.36 230.42 420.25 229.09C420.71 228.4 419.49 228.07 419.03 228.76C412.76 238.14 406.5 247.51 400.23 256.89C399.39 258.14 398.56 259.39 397.72 260.65C391.33 263.21 384.94 265.78 378.56 268.34C384.52 259.42 390.49 250.49 396.45 241.57C397.34 240.24 398.23 238.91 399.12 237.58C399.58 236.89 398.36 236.56 397.9 237.25C391.63 246.63 385.37 256 379.1 265.38C378.26 266.63 377.43 267.88 376.59 269.14C375.83 269.44 375.08 269.75 374.32 270.05C371.55 271.16 368.77 272.28 366 273.39C364.73 273.9 363.3 274.34 362.08 274.96C362.02 274.99 361.96 275.01 361.9 275.03C361.05 275.37 361.45 276.37 362.3 276.03C365.63 274.69 368.96 273.36 372.29 272.02C373.85 271.39 375.42 270.76 376.98 270.14C387.9 272.56 398.82 274.99 409.73 277.41C411.29 277.76 412.85 278.1 414.41 278.45C415.21 278.63 415.87 277.55 415.06 277.37C404.05 274.93 393.04 272.48 382.03 270.04C381 269.81 379.97 269.58 378.94 269.35C384.72 267.03 390.5 264.71 396.28 262.39C396.89 262.15 397.5 261.9 398.11 261.66C409.03 264.08 419.95 266.51 430.86 268.93C432.42 269.28 433.98 269.62 435.54 269.97C436.34 270.15 437 269.07 436.19 268.89C425.18 266.45 414.17 264 403.16 261.56C402.13 261.33 401.1 261.1 400.07 260.87C406.46 258.31 412.85 255.74 419.23 253.18C430.15 255.6 441.07 258.03 451.98 260.45L452.01 260.42Z" fill="#C1FF72"/>
</g>
<path opacity="0.1" d="M434.72 256.55C432.46 257.6 430.14 258.61 427.76 259.57C407 267.9 386.93 270.41 374.16 267.27C373.41 269.57 373.2 271.05 373.2 271.05C373.2 271.05 386.76 281.87 405.79 274.82C414.16 271.72 425.1 264.1 434.72 256.54V256.55Z" fill="#093731"/>
<path d="M12.46 145.08C12.46 145.08 38.66 183.5 56.85 192.5C75.05 201.5 92.04 188.02 92.04 188.02C92.04 188.02 93.97 166.42 76.46 156.15C58.95 145.88 12.46 145.08 12.46 145.08Z" fill="#00A558"/>
<mask id="mask2_160_564" style="mask-type:luminance" maskUnits="userSpaceOnUse" x="12" y="145" width="81" height="51">
<path d="M12.46 145.08C12.46 145.08 38.66 183.5 56.85 192.5C75.05 201.5 92.04 188.02 92.04 188.02C92.04 188.02 93.97 166.42 76.46 156.15C58.95 145.88 12.46 145.08 12.46 145.08Z" fill="white"/>
</mask>
<g mask="url(#mask2_160_564)">
<path d="M36.4 128.76C35.8 127.08 35.21 125.41 34.61 123.73C34.3 122.87 32.94 123.27 33.25 124.14C37.45 135.96 41.65 147.78 45.84 159.6C46.23 160.71 46.63 161.81 47.02 162.92C45.67 162.19 44.33 161.47 42.98 160.74C38.27 158.2 33.56 155.66 28.84 153.11C24.68 141.39 20.51 129.67 16.35 117.95C15.75 116.27 15.16 114.6 14.56 112.92C14.25 112.06 12.89 112.46 13.2 113.33C17.4 125.15 21.6 136.97 25.79 148.79C26.18 149.9 26.58 151 26.97 152.11C24.36 150.7 21.75 149.3 19.15 147.89C16.52 146.47 13.89 145.05 11.26 143.63C10.05 142.98 8.82 142.12 7.54 141.62C7.48 141.6 7.43 141.56 7.37 141.53C6.56 141.1 5.88999 142.35 6.68999 142.78C9.84999 144.48 13 146.19 16.16 147.89C19.54 149.71 22.91 151.53 26.29 153.35C14.69 156.19 3.09999 159.02 -8.50001 161.86C-10.23 162.28 -11.95 162.7 -13.68 163.13C-14.57 163.35 -14.16 164.71 -13.27 164.49C-1.09001 161.51 11.1 158.53 23.28 155.55C24.91 155.15 26.53 154.75 28.16 154.36C31.75 156.3 35.34 158.23 38.92 160.17C41.39 161.5 43.86 162.84 46.33 164.17C34.73 167.01 23.14 169.84 11.54 172.68C9.81 173.1 8.08999 173.53 6.35999 173.95C5.46999 174.17 5.87999 175.53 6.76999 175.31C18.95 172.33 31.14 169.35 43.32 166.37C44.95 165.97 46.57 165.57 48.2 165.18C54.26 168.45 60.32 171.72 66.37 174.99C54.77 177.83 43.18 180.66 31.58 183.5C29.85 183.92 28.13 184.35 26.4 184.77C25.51 184.99 25.92 186.35 26.81 186.13C38.99 183.15 51.18 180.17 63.36 177.19L68.24 176C74.3 179.27 80.36 182.54 86.41 185.81C74.81 188.65 63.22 191.48 51.62 194.32L46.44 195.59C45.55 195.81 45.96 197.17 46.85 196.95L83.4 188.01C85.03 187.61 86.65 187.21 88.28 186.82C89 187.21 89.71 187.59 90.43 187.98C93.06 189.4 95.69 190.82 98.32 192.24C99.53 192.89 100.76 193.75 102.04 194.25C102.1 194.27 102.15 194.31 102.21 194.34C103.02 194.77 103.69 193.52 102.89 193.09C99.73 191.39 96.58 189.68 93.42 187.98C91.94 187.18 90.45 186.38 88.97 185.58C84.81 173.86 80.64 162.14 76.48 150.42C75.88 148.74 75.29 147.07 74.69 145.39C74.38 144.53 73.02 144.93 73.33 145.8C77.53 157.62 81.73 169.44 85.92 181.26C86.31 182.37 86.71 183.47 87.1 184.58C81.62 181.62 76.14 178.67 70.66 175.71C70.08 175.4 69.5 175.09 68.93 174.77C64.77 163.05 60.6 151.33 56.44 139.61C55.84 137.93 55.25 136.26 54.65 134.58C54.34 133.72 52.98 134.12 53.29 134.99C57.49 146.81 61.69 158.63 65.88 170.45C66.27 171.56 66.67 172.66 67.06 173.77C61 170.5 54.94 167.23 48.89 163.96C44.73 152.24 40.56 140.52 36.4 128.8V128.76Z" fill="#C1FF72"/>
</g>
<path opacity="0.1" d="M42.9697 147.36C45.2397 148.39 47.5097 149.5 49.7797 150.72C69.4697 161.34 83.4597 176.61 88.0497 190.6C90.5797 189.19 92.0497 188.02 92.0497 188.02C92.0497 188.02 93.9797 166.42 76.4697 156.15C68.7697 151.63 55.4597 148.95 42.9697 147.36Z" fill="#093731"/>
<path d="M46.3301 103.21C46.3301 103.21 54.9801 146.72 66.3801 163.5C77.7901 180.29 95.1101 179.35 95.1101 179.35C95.1101 179.35 103.2 164.01 92.7201 146.63C82.2401 129.25 46.3301 103.21 46.3301 103.21Z" fill="#C1FF72"/>
<mask id="mask3_160_564" style="mask-type:luminance" maskUnits="userSpaceOnUse" x="46" y="103" width="53" height="77">
<path d="M46.3301 103.21C46.3301 103.21 54.9801 146.72 66.3801 163.5C77.7901 180.29 95.1101 179.35 95.1101 179.35C95.1101 179.35 103.2 164.01 92.7201 146.63C82.2401 129.25 46.3301 103.21 46.3301 103.21Z" fill="white"/>
</mask>
<g mask="url(#mask3_160_564)">
<path d="M69.9199 103.91C69.9699 102.31 70.0199 100.71 70.0699 99.1199C70.0899 98.2999 68.9099 97.8599 68.8899 98.6799C68.5499 109.95 68.2099 121.22 67.8699 132.5C67.8399 133.56 67.8099 134.61 67.7699 135.67C66.9499 134.38 66.1199 133.09 65.2999 131.81C62.4099 127.3 59.5199 122.79 56.6299 118.29C56.9699 107.11 57.3099 95.9299 57.6499 84.7499C57.6999 83.1499 57.7499 81.5499 57.7999 79.9599C57.8199 79.1399 56.6399 78.6999 56.6199 79.5199C56.2799 90.7899 55.9399 102.06 55.5999 113.34C55.5699 114.4 55.5399 115.45 55.4999 116.51C53.8999 114.01 52.2999 111.52 50.6999 109.02C49.0899 106.5 47.4799 103.99 45.8599 101.47C45.1199 100.32 44.4199 98.9899 43.5799 97.9099C43.5399 97.8599 43.5099 97.7999 43.4799 97.7499C42.9899 96.9799 42.0799 97.5599 42.5699 98.3299C44.5099 101.35 46.4399 104.37 48.3799 107.39C50.4499 110.62 52.5199 113.85 54.5899 117.08C44.7099 112.89 34.8199 108.7 24.9399 104.51C23.4699 103.89 21.9999 103.26 20.5199 102.64C19.7599 102.32 19.6599 103.58 20.4199 103.9C30.7999 108.3 41.1899 112.7 51.5699 117.1C52.9599 117.69 54.3399 118.28 55.7299 118.86C57.9299 122.29 60.1299 125.73 62.3299 129.16C63.8399 131.52 65.3599 133.89 66.8699 136.25C56.9899 132.06 47.0999 127.87 37.2199 123.68C35.7499 123.06 34.2799 122.43 32.7999 121.81C32.0399 121.49 31.9399 122.75 32.6999 123.07L63.8499 136.27C65.2399 136.86 66.6199 137.45 68.0099 138.03L79.1499 155.42C69.2699 151.23 59.3799 147.04 49.4999 142.85C48.0299 142.23 46.5599 141.6 45.0799 140.98C44.3199 140.66 44.2199 141.92 44.9799 142.24C55.3599 146.64 65.7499 151.04 76.1299 155.44C77.5199 156.03 78.8999 156.62 80.2899 157.2C83.9999 163 87.7199 168.79 91.4299 174.59C81.5499 170.4 71.6599 166.21 61.7799 162.02C60.3099 161.4 58.8399 160.77 57.3599 160.15C56.5999 159.83 56.4999 161.09 57.2599 161.41C67.6399 165.81 78.0299 170.21 88.4099 174.61C89.7999 175.2 91.1799 175.79 92.5699 176.37L93.8899 178.43C95.4999 180.95 97.1099 183.46 98.7299 185.98C99.4699 187.13 100.17 188.46 101.01 189.54C101.05 189.59 101.08 189.65 101.11 189.7C101.6 190.47 102.51 189.89 102.02 189.12C100.08 186.1 98.1499 183.08 96.2099 180.06C95.2999 178.64 94.3899 177.22 93.4799 175.8C93.8199 164.62 94.1599 153.44 94.4999 142.26C94.5499 140.66 94.5999 139.06 94.6499 137.47C94.6699 136.65 93.4899 136.21 93.4699 137.03C93.1299 148.3 92.7899 159.57 92.4499 170.85C92.4199 171.91 92.3899 172.96 92.3499 174.02C88.9899 168.78 85.6299 163.53 82.2699 158.29C81.9199 157.74 81.5599 157.18 81.2099 156.63C81.5499 145.45 81.8899 134.27 82.2299 123.09C82.2799 121.49 82.3299 119.89 82.3799 118.3C82.3999 117.48 81.2199 117.04 81.1999 117.86C80.8599 129.13 80.5199 140.4 80.1799 151.68C80.1499 152.74 80.1199 153.79 80.0799 154.85L68.9399 137.46C69.2799 126.28 69.6199 115.1 69.9599 103.92L69.9199 103.91Z" fill="#00A558"/>
</g>
<path opacity="0.1" d="M69.3599 121.62C70.8099 123.64 72.2399 125.73 73.6299 127.9C85.6999 146.74 91.9199 165.98 91.2199 179.12C93.6199 179.43 95.1199 179.35 95.1199 179.35C95.1199 179.35 103.21 164.01 92.7299 146.63C88.1199 138.99 78.5899 129.67 69.3599 121.63V121.62Z" fill="#093731"/>
<path d="M87.0798 88.5H375.89C378.93 88.5 381.4 90.97 381.4 94.01V280.81C381.4 283.85 378.93 286.32 375.89 286.32H87.0798C84.0398 286.32 81.5698 283.85 81.5698 280.81V94.01C81.5698 90.97 84.0398 88.5 87.0798 88.5Z" fill="#093731"/>
<path d="M367.01 103.92H95.96V276.2H367.01V103.92Z" fill="#D0DBF7"/>
<path d="M62.0898 268.21V284.13C62.0898 287.55 64.8898 290.36 68.3198 290.36H394.66C398.08 290.36 400.89 287.56 400.89 284.13V268.21H62.0898Z" fill="#093731"/>
<path d="M194.6 267.5V278.85C194.6 279.86 195.43 280.69 196.44 280.69H266.52C267.53 280.69 268.36 279.86 268.36 278.85V267.5H194.59H194.6Z" fill="#00A558"/>
<path d="M346.58 118.6H111.43V254.56H346.58V118.6Z" fill="white"/>
<path d="M346.58 118.6H111.43V131.7H346.58V118.6Z" fill="#E2E6FF"/>
<path d="M122.86 125.45C122.86 127.11 121.52 128.45 119.86 128.45C118.2 128.45 116.86 127.11 116.86 125.45C116.86 123.79 118.2 122.45 119.86 122.45C121.52 122.45 122.86 123.79 122.86 125.45Z" fill="#FF0000"/>
<path d="M132.96 125.45C132.96 127.11 131.62 128.45 129.96 128.45C128.3 128.45 126.96 127.11 126.96 125.45C126.96 123.79 128.3 122.45 129.96 122.45C131.62 122.45 132.96 123.79 132.96 125.45Z" fill="#F3B81E"/>
<path d="M143.05 125.45C143.05 127.11 141.71 128.45 140.05 128.45C138.39 128.45 137.05 127.11 137.05 125.45C137.05 123.79 138.39 122.45 140.05 122.45C141.71 122.45 143.05 123.79 143.05 125.45Z" fill="#00A558"/>
<path d="M225.4 200.5C225.4 196.73 226.9 193.8 229.89 191.69L231.33 190.69C232.7 189.8 233.65 189.07 234.18 188.5C234.71 187.93 234.98 187.22 234.98 186.37C234.98 184.23 233.19 183.16 229.61 183.16C227.95 183.16 226.23 183.38 224.46 183.83C222.69 184.27 221.01 184.9 219.42 185.71V177.18C222.82 175.63 226.62 174.85 230.83 174.85C235.37 174.85 238.97 175.8 241.63 177.7C244.29 179.6 245.62 182.23 245.62 185.59C245.62 187.47 245.2 189 244.35 190.16C243.5 191.32 242.06 192.62 240.03 194.07C238.66 195.07 237.67 195.83 237.04 196.37C236.41 196.91 235.94 197.51 235.63 198.17C235.32 198.84 235.16 199.65 235.16 200.61V201.66H225.41V200.5H225.4ZM226.54 213.77C225.56 212.79 225.07 211.58 225.07 210.14C225.07 208.7 225.56 207.44 226.54 206.48C227.52 205.52 228.75 205.04 230.22 205.04C231.69 205.04 232.89 205.53 233.9 206.51C234.91 207.49 235.42 208.7 235.42 210.14C235.42 211.58 234.91 212.79 233.9 213.77C232.88 214.75 231.66 215.24 230.22 215.24C228.78 215.24 227.51 214.75 226.54 213.77Z" fill="#D0DBF7"/>
<path d="M231.48 240.8C205.46 240.8 184.28 219.63 184.28 193.6C184.28 167.57 205.45 146.4 231.48 146.4C257.51 146.4 278.68 167.57 278.68 193.6C278.68 219.63 257.51 240.8 231.48 240.8ZM231.48 149.31C207.06 149.31 187.19 169.18 187.19 193.6C187.19 218.02 207.06 237.89 231.48 237.89C255.9 237.89 275.77 218.02 275.77 193.6C275.77 169.18 255.9 149.31 231.48 149.31Z" fill="#D0DBF7"/>
<path d="M297.07 147.96H438.01C440.85 147.96 443.16 150.27 443.16 153.11V181C443.16 183.84 440.85 186.15 438.01 186.15H297.07C294.23 186.15 291.92 183.84 291.92 181V153.11C291.92 150.27 294.23 147.96 297.07 147.96Z" fill="#093731"/>
<path d="M338.25 153.06H336.19V181.05H338.25V153.06Z" fill="#FFCF74"/>
<path d="M360.338 159.455V174H358.321L350.928 163.332H350.793V174H348.598V159.455H350.629L358.03 170.136H358.165V159.455H360.338ZM375.674 166.727C375.674 168.28 375.39 169.616 374.822 170.733C374.254 171.846 373.475 172.703 372.485 173.304C371.501 173.901 370.381 174.199 369.126 174.199C367.867 174.199 366.742 173.901 365.752 173.304C364.768 172.703 363.991 171.843 363.423 170.726C362.855 169.608 362.571 168.276 362.571 166.727C362.571 165.174 362.855 163.841 363.423 162.729C363.991 161.611 364.768 160.754 365.752 160.158C366.742 159.556 367.867 159.256 369.126 159.256C370.381 159.256 371.501 159.556 372.485 160.158C373.475 160.754 374.254 161.611 374.822 162.729C375.39 163.841 375.674 165.174 375.674 166.727ZM373.501 166.727C373.501 165.544 373.309 164.547 372.926 163.737C372.547 162.923 372.026 162.307 371.363 161.891C370.705 161.469 369.959 161.259 369.126 161.259C368.288 161.259 367.54 161.469 366.882 161.891C366.224 162.307 365.703 162.923 365.319 163.737C364.94 164.547 364.751 165.544 364.751 166.727C364.751 167.911 364.94 168.91 365.319 169.724C365.703 170.534 366.224 171.15 366.882 171.571C367.54 171.988 368.288 172.196 369.126 172.196C369.959 172.196 370.705 171.988 371.363 171.571C372.026 171.15 372.547 170.534 372.926 169.724C373.309 168.91 373.501 167.911 373.501 166.727ZM387.412 174H382.703V159.455H387.561C388.987 159.455 390.211 159.746 391.233 160.328C392.256 160.906 393.04 161.737 393.584 162.821C394.133 163.901 394.408 165.196 394.408 166.706C394.408 168.221 394.131 169.523 393.577 170.612C393.028 171.701 392.232 172.539 391.191 173.126C390.149 173.709 388.89 174 387.412 174ZM384.898 172.082H387.292C388.4 172.082 389.32 171.874 390.054 171.457C390.788 171.036 391.337 170.428 391.702 169.632C392.067 168.832 392.249 167.857 392.249 166.706C392.249 165.565 392.067 164.597 391.702 163.801C391.342 163.006 390.805 162.402 390.09 161.99C389.375 161.578 388.487 161.372 387.426 161.372H384.898V172.082ZM397.143 174H394.814L400.048 159.455H402.583L407.818 174H405.488L401.376 162.097H401.262L397.143 174ZM397.534 168.304H405.091V170.151H397.534V168.304ZM406.982 161.344V159.455H418.239V161.344H413.701V174H411.513V161.344H406.982ZM419.737 174H417.407L422.642 159.455H425.177L430.412 174H428.082L423.97 162.097H423.856L419.737 174ZM420.127 168.304H427.684V170.151H420.127V168.304Z" fill="white"/>
<path d="M325.65 172.61L318.62 169.04C319.12 167.61 319.14 166.07 318.66 164.61C318.08 162.85 316.85 161.41 315.2 160.57C313.55 159.73 311.66 159.59 309.9 160.16C308.14 160.74 306.7 161.97 305.86 163.62C305.02 165.28 304.88 167.16 305.45 168.92C306.03 170.68 307.26 172.12 308.91 172.96C310.56 173.8 312.45 173.94 314.21 173.37C315.67 172.89 316.9 171.96 317.76 170.72L324.79 174.29L325.64 172.61H325.65ZM309.77 171.29C308.56 170.68 307.67 169.63 307.25 168.35C306.83 167.07 306.94 165.69 307.55 164.49C308.16 163.28 309.21 162.39 310.49 161.97C311.77 161.55 313.15 161.65 314.35 162.27C315.56 162.88 316.45 163.93 316.87 165.21C317.29 166.49 317.18 167.87 316.57 169.07C315.96 170.28 314.91 171.17 313.63 171.59C312.35 172.01 310.97 171.9 309.77 171.29Z" fill="white"/>
<path d="M309.04 164.82L310.05 165.33C310.56 164.32 311.8 163.91 312.81 164.43L313.32 163.42C311.75 162.62 309.83 163.25 309.03 164.82H309.04Z" fill="white"/>
<path d="M163.75 189.76H24.96V278.05H163.75V189.76Z" fill="#F5F9FF"/>
<path d="M163.75 189.76H24.96V200.77H163.75V189.76Z" fill="#E2E6FF"/>
<path d="M32.04 198.04C33.4318 198.04 34.56 196.912 34.56 195.52C34.56 194.128 33.4318 193 32.04 193C30.6483 193 29.52 194.128 29.52 195.52C29.52 196.912 30.6483 198.04 32.04 198.04Z" fill="#FF0000"/>
<path d="M43.0503 195.52C43.0503 196.91 41.9203 198.04 40.5303 198.04C39.1403 198.04 38.0103 196.91 38.0103 195.52C38.0103 194.13 39.1403 193 40.5303 193C41.9203 193 43.0503 194.13 43.0503 195.52Z" fill="#F3B81E"/>
<path d="M49.02 198.04C50.4118 198.04 51.54 196.912 51.54 195.52C51.54 194.128 50.4118 193 49.02 193C47.6282 193 46.5 194.128 46.5 195.52C46.5 196.912 47.6282 198.04 49.02 198.04Z" fill="#00A558"/>
<path d="M45.3999 238.2C47.4399 235.74 49.4799 233.81 51.5199 232.06C53.5599 230.28 55.5999 228.78 57.6399 227.37C61.7199 224.61 65.7999 222.46 69.8799 220.82C78.0399 217.51 86.1999 216.08 94.3499 216.04C102.51 216.04 110.67 217.45 118.82 220.75C122.9 222.39 126.98 224.54 131.06 227.31C133.1 228.73 135.14 230.23 137.18 232.02C139.22 233.78 141.26 235.72 143.3 238.2C141.26 240.68 139.22 242.61 137.18 244.38C135.14 246.17 133.1 247.67 131.06 249.09C126.98 251.85 122.9 254.01 118.82 255.65C110.66 258.95 102.5 260.37 94.3499 260.36C86.1899 260.32 78.0299 258.89 69.8799 255.58C65.7999 253.94 61.7199 251.79 57.6399 249.03C55.5999 247.61 53.5599 246.12 51.5199 244.34C49.4799 242.58 47.4399 240.66 45.3999 238.2Z" fill="#F3B81E"/>
<path d="M106.26 239.439C99.7998 239.439 94.5598 234.199 94.5598 227.739C94.5598 225.139 95.4198 222.749 96.8498 220.809C96.0298 220.689 95.1998 220.609 94.3498 220.609C84.6298 220.609 76.7598 228.489 76.7598 238.199C76.7598 247.909 84.6398 255.789 94.3498 255.789C104.06 255.789 111.94 247.909 111.94 238.199C111.94 238.119 111.93 238.049 111.93 237.969C110.25 238.899 108.32 239.439 106.26 239.439Z" fill="#093731"/>
<path d="M45.3999 238.2C48.2499 234.57 51.6599 231.39 55.2799 228.47C58.9399 225.6 62.8599 223.02 67.0399 220.9C71.1999 218.73 75.6499 217.09 80.2299 215.88C84.8199 214.72 89.5599 214.13 94.3099 214.08C95.4999 214.12 96.6899 214.08 97.8699 214.19L101.42 214.52C103.76 214.9 106.12 215.21 108.4 215.87C110.72 216.4 112.92 217.26 115.16 218.01L118.41 219.4L120.02 220.13L121.57 220.96C129.89 225.32 137.21 231.28 143.29 238.2C136.01 232.57 128.35 227.56 120.15 223.93L118.62 223.24L117.05 222.66L113.92 221.48C111.78 220.87 109.67 220.14 107.49 219.75C105.34 219.21 103.14 218.93 100.95 218.61L97.6399 218.35C96.5399 218.26 95.4299 218.32 94.3299 218.29C85.4899 218.26 76.6799 220.34 68.4399 223.86C64.3199 225.64 60.3199 227.74 56.4699 230.15C52.6099 232.53 48.9099 235.22 45.3999 238.19V238.2Z" fill="#C1FF72"/>
<path d="M120.823 208.089L63.7739 265.139L65.8104 267.175L122.86 210.126L120.823 208.089Z" fill="#C1FF72"/>
<path d="M313.25 0H174.46V88.29H313.25V0Z" fill="#F5F9FF"/>
<path d="M313.25 0H174.46V11.01H313.25V0Z" fill="#E2E6FF"/>
<path d="M181.54 8.28023C182.932 8.28023 184.06 7.15199 184.06 5.76023C184.06 4.36848 182.932 3.24023 181.54 3.24023C180.148 3.24023 179.02 4.36848 179.02 5.76023C179.02 7.15199 180.148 8.28023 181.54 8.28023Z" fill="#C1D1F4"/>
<path d="M192.55 5.76023C192.55 7.15023 191.42 8.28023 190.03 8.28023C188.64 8.28023 187.51 7.15023 187.51 5.76023C187.51 4.37023 188.64 3.24023 190.03 3.24023C191.42 3.24023 192.55 4.37023 192.55 5.76023Z" fill="#C1D1F4"/>
<path d="M198.52 8.28023C199.912 8.28023 201.04 7.15199 201.04 5.76023C201.04 4.36848 199.912 3.24023 198.52 3.24023C197.128 3.24023 196 4.36848 196 5.76023C196 7.15199 197.128 8.28023 198.52 8.28023Z" fill="#C1D1F4"/>
<path d="M300.88 20.6099H162.09V108.9H300.88V20.6099Z" fill="#F5F9FF"/>
<path d="M300.88 20.6099H162.09V31.6199H300.88V20.6099Z" fill="#E2E6FF"/>
<path d="M169.18 28.8901C170.571 28.8901 171.7 27.7619 171.7 26.3701C171.7 24.9783 170.571 23.8501 169.18 23.8501C167.788 23.8501 166.66 24.9783 166.66 26.3701C166.66 27.7619 167.788 28.8901 169.18 28.8901Z" fill="#FF0000"/>
<path d="M180.18 26.3701C180.18 27.7601 179.05 28.8901 177.66 28.8901C176.27 28.8901 175.14 27.7601 175.14 26.3701C175.14 24.9801 176.27 23.8501 177.66 23.8501C179.05 23.8501 180.18 24.9801 180.18 26.3701Z" fill="#F3B81E"/>
<path d="M186.15 28.8901C187.542 28.8901 188.67 27.7619 188.67 26.3701C188.67 24.9783 187.542 23.8501 186.15 23.8501C184.758 23.8501 183.63 24.9783 183.63 26.3701C183.63 27.7619 184.758 28.8901 186.15 28.8901Z" fill="#00A558"/>
<path d="M256.6 95.26H206.62C203.8 95.26 201.58 94.13 200.51 92.17C199.45 90.21 199.72 87.73 201.26 85.37L225.6 48.07C227.09 45.79 229.28 44.48 231.6 44.48C233.92 44.48 236.11 45.79 237.6 48.07L261.94 85.37C263.48 87.73 263.75 90.21 262.69 92.17C261.63 94.13 259.4 95.26 256.58 95.26H256.6ZM205.69 88.26C205.14 89.1 205.14 89.58 205.17 89.67C205.22 89.72 205.63 89.98 206.63 89.98H256.61C257.61 89.98 258.02 89.72 258.07 89.65C258.09 89.58 258.08 89.1 257.54 88.26L233.2 50.96C232.71 50.21 232.12 49.76 231.62 49.76C231.12 49.76 230.53 50.21 230.04 50.96L205.7 88.26H205.69Z" fill="#093731"/>
<path d="M230.08 85.1501C229.68 84.7501 229.48 84.2501 229.48 83.6501C229.48 83.0501 229.68 82.5601 230.08 82.1501C230.48 81.7501 230.98 81.5401 231.58 81.5401C232.18 81.5401 232.68 81.7401 233.09 82.1501C233.5 82.5501 233.71 83.0501 233.71 83.6501C233.71 84.2501 233.5 84.7401 233.09 85.1501C232.67 85.5501 232.17 85.7601 231.58 85.7601C230.99 85.7601 230.49 85.5601 230.08 85.1501ZM228.83 60.3301H234.38L233.35 78.1001H229.86L228.83 60.3301Z" fill="#093731"/>
<path d="M383.83 16.2799C378.14 10.7899 370.49 7.73994 362.6 7.68994C354.43 7.73994 346.49 11.0099 340.77 16.8699C334.97 22.8099 331.76 31.0399 332.09 39.3399C332.3 44.6599 333.91 49.8599 336.72 54.3699C335.69 58.3699 334.67 62.3699 333.64 66.3699C333.15 68.2899 334.89 70.0299 336.81 69.5399C341.29 68.3999 345.78 67.2599 350.26 66.1199C357.3 69.1399 365.3 69.6399 372.58 67.0799C379.08 64.7899 384.66 60.3899 388.38 54.5899C396.09 42.5599 394.09 26.1799 383.83 16.2799ZM387.23 44.3599C385.35 51.8599 380.1 58.0799 373.11 61.3499C369.55 63.0099 365.58 63.7199 361.67 63.5899C359.11 63.5099 356.61 63.0199 354.19 62.1799C352.59 61.6299 351.16 60.6199 349.44 61.0199C346.18 61.7699 342.94 62.6199 339.7 63.4699C340.05 62.0999 340.41 60.7199 340.76 59.3499C341.13 57.9099 341.53 56.4699 341.87 55.0199C342.06 54.1999 342.13 53.4599 341.71 52.6599C340.93 51.1699 339.94 49.8299 339.27 48.2699C334.76 37.8599 337.98 25.6299 346.64 18.4799C351.11 14.7999 356.85 12.8899 362.6 12.8499C370.4 12.8999 377.87 16.4799 382.67 22.6599C387.4 28.7499 389.11 36.8899 387.24 44.3599H387.23Z" fill="#F3B81E"/>
<path d="M362.56 21.1401C353.14 21.1401 345.48 28.8001 345.48 38.2201C345.48 47.6401 353.14 55.3001 362.56 55.3001C371.98 55.3001 379.64 47.6401 379.64 38.2201C379.64 28.8001 371.98 21.1401 362.56 21.1401ZM350.51 38.2201C350.51 31.5801 355.92 26.1701 362.56 26.1701C364.92 26.1701 367.16 26.8401 369.11 28.1101L352.45 44.7701C351.18 42.8201 350.51 40.5801 350.51 38.2201ZM362.56 50.2701C360.2 50.2701 357.96 49.6001 356.01 48.3301L372.67 31.6701C373.94 33.6201 374.61 35.8601 374.61 38.2201C374.61 44.8601 369.2 50.2701 362.56 50.2701Z" fill="#CFD6F9"/>
<path d="M439.77 115.06C438.75 113.81 437.75 112.91 437 112.26C436.03 111.41 435.07 110.71 434.24 110.14C432.47 108.94 430.62 107.95 428.74 107.19C425.26 105.78 421.57 105.07 417.73 105.07C413.85 105.09 410.25 105.79 406.74 107.22C404.85 107.98 403 108.97 401.23 110.17C400.42 110.73 399.47 111.42 398.49 112.27C397.73 112.92 396.73 113.83 395.71 115.06L395.07 115.83L395.71 116.6C396.73 117.83 397.73 118.74 398.48 119.39C399.46 120.25 400.42 120.94 401.24 121.5C403 122.69 404.85 123.68 406.74 124.44C410.26 125.87 413.86 126.57 417.74 126.59H417.77C421.57 126.59 425.26 125.88 428.74 124.47C430.62 123.72 432.47 122.72 434.26 121.51C435.07 120.94 436.04 120.25 436.99 119.4C437.75 118.75 438.74 117.84 439.77 116.59L440.4 115.82L439.77 115.05V115.06ZM435.4 117.62C434.52 118.39 433.63 119.03 432.88 119.55C431.25 120.65 429.55 121.55 427.83 122.24C424.6 123.54 421.31 124.17 417.74 124.17C414.17 124.15 410.87 123.51 407.64 122.21C405.91 121.52 404.22 120.62 402.6 119.53C401.85 119.01 400.96 118.38 400.06 117.59C399.56 117.16 398.92 116.59 398.24 115.87C398.92 115.14 399.56 114.57 400.06 114.14C400.95 113.37 401.83 112.73 402.58 112.22C404.2 111.13 405.9 110.22 407.63 109.53C410.86 108.23 414.16 107.59 417.75 107.57C421.29 107.57 424.58 108.2 427.81 109.5C429.53 110.19 431.22 111.09 432.84 112.18C433.6 112.71 434.49 113.35 435.38 114.13C435.88 114.56 436.52 115.13 437.2 115.87C436.52 116.61 435.87 117.18 435.37 117.61L435.4 117.62Z" fill="#F3B81E"/>
<path d="M424.5 114.34L423.28 115.02C422.82 115.28 422.3 115.41 421.77 115.41C420.05 115.41 418.65 114.01 418.65 112.29C418.65 111.62 418.86 110.98 419.26 110.44L420.09 109.31L418.7 109.11C418.34 109.06 418.03 109.03 417.74 109.03C414 109.03 410.95 112.07 410.95 115.82C410.95 119.57 413.99 122.61 417.74 122.61C421.49 122.61 424.53 119.57 424.53 115.82C424.53 115.79 424.53 115.75 424.53 115.73L424.51 114.33L424.5 114.34Z" fill="#F3B81E"/>
<path d="M430.737 101.544L403.45 128.831L404.737 130.118L432.024 102.831L430.737 101.544Z" fill="#093731"/>
<path d="M86.1502 63.1596C85.2002 63.1596 84.3402 63.3396 83.6402 63.6296C83.3702 61.9496 82.7102 60.3996 81.7502 59.0796C82.4502 58.7996 83.1902 58.3196 83.8602 57.6496C85.4502 56.0596 86.0402 54.0596 85.1702 53.1796C84.3002 52.3096 82.3002 52.8896 80.7002 54.4896C80.0302 55.1596 79.5502 55.8996 79.2702 56.5996C77.9502 55.6496 76.4002 54.9896 74.7202 54.7096C75.0202 54.0196 75.1902 53.1496 75.1902 52.1996C75.1902 49.9396 74.1902 48.1196 72.9602 48.1196C71.7302 48.1196 70.7302 49.9496 70.7302 52.1996C70.7302 53.1496 70.9102 54.0096 71.2002 54.7096C69.5202 54.9796 67.9702 55.6396 66.6502 56.5996C66.3702 55.8996 65.8902 55.1596 65.2202 54.4896C63.6302 52.8996 61.6302 52.3096 60.7502 53.1796C59.8802 54.0496 60.4602 56.0496 62.0602 57.6496C62.7302 58.3196 63.4702 58.7996 64.1702 59.0796C63.2202 60.3996 62.5602 61.9496 62.2902 63.6296C61.6002 63.3296 60.7302 63.1596 59.7802 63.1596C57.5302 63.1596 55.7002 64.1596 55.7002 65.3896C55.7002 66.6196 57.5302 67.6196 59.7802 67.6196C60.7302 67.6196 61.5902 67.4396 62.2902 67.1496C62.5602 68.8296 63.2202 70.3796 64.1702 71.6996C63.4702 71.9796 62.7302 72.4596 62.0602 73.1296C60.4702 74.7196 59.8802 76.7196 60.7502 77.5996C61.6202 78.4696 63.6202 77.8896 65.2202 76.2896C65.8902 75.6196 66.3702 74.8796 66.6502 74.1796C67.9702 75.1296 69.5202 75.7896 71.2002 76.0696C70.9002 76.7596 70.7302 77.6296 70.7302 78.5796C70.7302 80.8296 71.7302 82.6596 72.9602 82.6596C74.1902 82.6596 75.1902 80.8296 75.1902 78.5796C75.1902 77.6296 75.0102 76.7596 74.7202 76.0696C76.4002 75.7996 77.9502 75.1396 79.2702 74.1796C79.5502 74.8796 80.0302 75.6196 80.7002 76.2896C82.2902 77.8796 84.2902 78.4696 85.1702 77.5996C86.0502 76.7296 85.4602 74.7296 83.8602 73.1296C83.1902 72.4596 82.4502 71.9796 81.7502 71.6996C82.7002 70.3796 83.3602 68.8296 83.6402 67.1496C84.3302 67.4496 85.2002 67.6196 86.1502 67.6196C88.4002 67.6196 90.2302 66.6196 90.2302 65.3896C90.2302 64.1596 88.4002 63.1596 86.1502 63.1596ZM72.9702 72.5096C69.0402 72.5096 65.8502 69.3196 65.8502 65.3896C65.8502 61.4596 69.0402 58.2696 72.9702 58.2696C76.9002 58.2696 80.0902 61.4596 80.0902 65.3896C80.0902 69.3196 76.9002 72.5096 72.9702 72.5096Z" fill="#F3B81E"/>
<path d="M121.48 39.1298C120.21 38.6198 118.94 38.3898 117.85 38.4098C118.39 35.9998 118.34 33.5598 117.78 31.2598C118.88 31.2598 120.13 31.0198 121.4 30.4798C124.41 29.1998 126.28 26.8198 125.58 25.1698C124.88 23.5198 121.87 23.2298 118.86 24.5098C117.59 25.0498 116.55 25.7898 115.79 26.5798C114.52 24.5798 112.8 22.8598 110.68 21.5698C111.45 20.7998 112.16 19.7198 112.68 18.4498C113.9 15.4098 113.55 12.4098 111.89 11.7398C110.23 11.0698 107.89 12.9898 106.67 16.0298C106.16 17.2998 105.93 18.5698 105.95 19.6598C103.54 19.1198 101.1 19.1698 98.8003 19.7298C98.8003 18.6298 98.5603 17.3798 98.0203 16.1098C96.7403 13.0998 94.3603 11.2298 92.7103 11.9298C91.0603 12.6298 90.7703 15.6398 92.0503 18.6498C92.5903 19.9198 93.3303 20.9598 94.1203 21.7198C92.1203 22.9898 90.3903 24.7098 89.1103 26.8298C88.3403 26.0598 87.2603 25.3498 85.9903 24.8298C82.9503 23.6098 79.9503 23.9598 79.2803 25.6198C78.6103 27.2798 80.5303 29.6198 83.5703 30.8398C84.8403 31.3498 86.1103 31.5798 87.2003 31.5598C86.6603 33.9698 86.7103 36.4098 87.2703 38.7098C86.1703 38.7098 84.9203 38.9498 83.6503 39.4898C80.6403 40.7698 78.7703 43.1498 79.4703 44.7998C80.1703 46.4498 83.1803 46.7398 86.1903 45.4598C87.4603 44.9198 88.5003 44.1798 89.2603 43.3898C90.5303 45.3898 92.2503 47.1198 94.3703 48.3998C93.6003 49.1698 92.8903 50.2498 92.3703 51.5198C91.1503 54.5598 91.5003 57.5598 93.1603 58.2298C94.8203 58.8998 97.1603 56.9798 98.3803 53.9398C98.8903 52.6698 99.1203 51.3998 99.1003 50.3098C101.51 50.8498 103.95 50.7998 106.25 50.2398C106.25 51.3398 106.49 52.5898 107.03 53.8598C108.31 56.8698 110.69 58.7498 112.34 58.0398C113.99 57.3398 114.28 54.3298 113 51.3198C112.46 50.0498 111.72 49.0098 110.93 48.2498C112.93 46.9798 114.66 45.2598 115.94 43.1398C116.71 43.9098 117.79 44.6198 119.06 45.1398C122.1 46.3598 125.1 46.0098 125.77 44.3498C126.44 42.6898 124.52 40.3498 121.48 39.1298ZM98.6603 44.5798C93.3703 42.4498 90.8003 36.4298 92.9303 31.1398C95.0603 25.8498 101.08 23.2798 106.37 25.4098C111.66 27.5398 114.23 33.5598 112.1 38.8498C109.97 44.1398 103.95 46.7098 98.6603 44.5798Z" fill="#F3B81E"/>
<path d="M320.25 69.2202C320.25 70.3602 319.33 71.2802 318.19 71.2802C317.05 71.2802 316.13 70.3602 316.13 69.2202C316.13 68.0802 317.05 67.1602 318.19 67.1602C319.33 67.1602 320.25 68.0802 320.25 69.2202Z" fill="#EEF1FF"/>
<path d="M282.2 288.29C281.32 289.64 281.31 290.43 281.35 290.56C281.42 290.64 282.09 291.06 283.7 291.06H364.48C366.09 291.06 366.76 290.64 366.85 290.53C366.88 290.42 366.87 289.64 365.99 288.28L326.65 228C325.86 226.79 324.91 226.07 324.1 226.07C323.29 226.07 322.34 226.79 321.55 228L282.21 288.28L282.2 288.29Z" fill="#F3B81E"/>
<path d="M364.48 299.61H283.7C279.15 299.61 275.55 297.79 273.83 294.62C272.11 291.45 272.55 287.44 275.04 283.63L314.39 223.35C316.8 219.66 320.33 217.54 324.09 217.54C327.85 217.54 331.38 219.66 333.79 223.35L373.14 283.63C375.63 287.44 376.07 291.45 374.35 294.62C372.63 297.79 369.03 299.61 364.48 299.61ZM282.2 288.29C281.32 289.64 281.31 290.43 281.35 290.56C281.42 290.64 282.09 291.06 283.7 291.06H364.48C366.09 291.06 366.76 290.64 366.85 290.53C366.88 290.42 366.87 289.64 365.99 288.28L326.65 228C325.86 226.79 324.91 226.07 324.1 226.07C323.29 226.07 322.34 226.79 321.55 228L282.21 288.28L282.2 288.29Z" fill="#093731"/>
<path d="M321.61 283.27C320.96 282.62 320.63 281.81 320.63 280.85C320.63 279.89 320.96 279.09 321.61 278.43C322.26 277.78 323.07 277.45 324.03 277.45C324.99 277.45 325.8 277.78 326.48 278.43C327.15 279.08 327.49 279.89 327.49 280.85C327.49 281.81 327.15 282.61 326.48 283.27C325.81 283.92 324.99 284.25 324.03 284.25C323.07 284.25 322.27 283.92 321.61 283.27ZM319.6 243.16H328.58L326.91 271.88H321.27L319.6 243.16Z" fill="#093731"/>
</svg>
